<svg xmlns="http://www.w3.org/2000/svg" width="512" height="512" fill-rule="evenodd" clip-rule="evenodd" image-rendering="optimizeQuality" shape-rendering="geometricPrecision" text-rendering="geometricPrecision" viewBox="0 0 512 512" id="tools">
  <path d="M426.508 122.106c-1.30867,0 -2.58544,-0.514962 -3.53623,-1.46457l-31.6123 -31.6135c-1.2626,-1.26378 -1.7563,-3.10513 -1.29449,-4.83072l11.5713 -43.1836c0.462994,-1.72678 1.81064,-3.07442 3.53623,-3.53623l43.186 -11.5713c1.72323,-0.461812 3.56576,0.0295276 4.82954,1.29331l31.6123 31.6135c1.2626,1.26378 1.75512,3.10513 1.29331,4.83072l-11.5701 43.1836c-0.462994,1.72678 -1.81182,3.07324 -3.53623,3.53623l-43.186 11.5725c-0.426379,0.113386 -0.862207,0.170079 -1.29331,0.170079zm-26.0351 -38.1084l27.5292 27.5304 37.6076 -10.0784 10.076 -37.6076 -27.528 -27.5304 -37.6088 10.0772 -10.076 37.6088z"></path>
  <path d="M319.227 261c-1.27914 0-2.56064-.487797-3.53623-1.46457-1.95237-1.95237-1.95237-5.11773 0-7.07128l117.847-117.846c.621262-.621262 1.39489-1.06654 2.24174-1.29449l48.6639-13.0406 16.9725-63.3344-46.3655-46.3643-63.3344 16.9713-13.0394 48.6651c-.227953.848034-.67323 1.62166-1.29331 2.24292l-117.847 117.846c-1.95237 1.95355-5.11891 1.95237-7.07128 0-1.95355-1.95237-1.95355-5.11891 0-7.07128l116.898-116.899 13.4398-50.1592c.462994-1.72678 1.81064-3.07324 3.53505-3.53623l68.9116-18.4654c1.72678-.461812 3.56576.0295276 4.82954 1.29449l50.4474 50.4474c1.26378 1.2626 1.75749 3.10395 1.29449 4.82954l-18.4666 68.9104c-.462994 1.7256-1.81064 3.07324-3.53505 3.53505l-50.1592 13.441-116.898 116.9c-.976775.975594-2.25709 1.46339-3.53505 1.46339zM55.4553 511.992c-1.30867 0-2.58662-.514962-3.53623-1.46457l-50.445-50.4474c-1.26378-1.2626-1.7563-3.10395-1.29449-4.82836l18.4642-68.9116c.461812-1.7256 1.80945-3.07324 3.53623-3.53623l50.1592-13.4386 116.899-116.9c1.95237-1.95355 5.11773-1.95355 7.07128 0 1.95237 1.95237 1.95237 5.11891 0 7.07128l-117.846 117.847c-.621262.620081-1.39371 1.06536-2.24174 1.29331l-48.6651 13.0406-16.9701 63.3344 46.3631 46.3643 63.3344-16.9725 13.0394-48.6639c.227953-.848034.67323-1.62166 1.29449-2.24292l117.846-117.847c1.95237-1.95001 5.11773-1.95237 7.07246 0 1.95119 1.95237 1.95119 5.11891 0 7.07128l-116.9 116.9-13.4398 50.1592c-.461812 1.72678-1.81064 3.07324-3.53505 3.53623l-68.9116 18.4666c-.428741.113386-.863388.168898-1.29449.168898z"></path>
  <path d="M62.3494 486.263c-1.30867 0-2.58544-.514962-3.53505-1.46339l-31.6147-31.6123c-1.2626-1.26378-1.75512-3.10395-1.29331-4.82954l11.5713-43.186c.461812-1.7256 1.80945-3.07206 3.53505-3.53505l43.1836-11.5713c1.72796-.460631 3.56694.0318899 4.83072 1.29449l31.6111 31.6123c1.26378 1.26378 1.7563 3.10513 1.29449 4.82954l-11.5713 43.186c-.461812 1.7256-1.80945 3.07206-3.53505 3.53505l-43.1848 11.5713c-.425198.114567-.861026.168898-1.29213.168898zm-26.0363-38.1048l27.5304 27.5292 37.6076-10.0772 10.0772-37.6064-27.5292-27.5304-37.6076 10.0772-10.0784 37.6076zM459.109 508.816c-13.2768 0-25.7611-5.1697-35.1485-14.5583l-325.943-325.944c-3.92363.563388-7.90278.846853-11.8618.846853-22.1682 0-43.0029-8.6268-58.6667-24.2906-20.5961-20.5961-28.819-49.8214-21.9957-78.1798.422836-1.75867 1.76339-3.15237 3.50434-3.64371 1.74095-.490159 3.613-.00118111 4.89214 1.27796l47.6647 47.6659 50.4368-50.4368-47.6671-47.6635c-1.27914-1.27914-1.76812-3.15001-1.27796-4.89214.49134-1.74213 1.88386-3.08151 3.64371-3.50552 6.37089-1.53189 12.9296-2.31024 19.4965-2.31024 22.167 0 43.0088 8.63152 58.6833 24.306 18.4914 18.4914 27.1513 44.6824 23.445 70.5286l325.944 325.944c9.38861 9.38979 14.5595 21.8717 14.5595 35.1497 0 13.2768-5.17088 25.7599-14.5607 35.1474-9.38743 9.38979-21.8694 14.5583-35.1485 14.5583zm-359.36-350.84c1.31457 0 2.59017.518506 3.53623 1.46457l327.746 327.747c7.50002 7.50002 17.4721 11.6304 28.0773 11.6304 10.6063 0 20.5784-4.13033 28.0773-11.6292 7.50002-7.50002 11.6315-17.4721 11.6315-28.0773 0-10.6063-4.13151-20.5796-11.6315-28.0796l-327.746-327.746c-1.15276-1.15394-1.67008-2.79568-1.38898-4.4008 4.1256-23.4709-3.44411-47.5171-20.2524-64.3254-13.7847-13.7847-32.1143-21.3757-51.612-21.3757-2.6693 0-5.3386.145276-7.99018.435828l44.4001 44.4001c.937798.937798 1.46457 2.20985 1.46457 3.53623 0 1.32638-.526773 2.59843-1.46457 3.53623l-57.5069 57.5069c-.937798.937798-2.20867 1.46339-3.53623 1.46339-1.32638 0-2.59725-.526773-3.53505-1.46339l-44.4131-44.4167c-2.46379 21.9556 5.05159 43.7127 20.954 59.6151 13.7741 13.7752 32.0989 21.3627 51.5954 21.3627 4.25671 0 8.5394-.374411 12.7288-1.11024.289371-.0496065.578742-.0744097.865751-.0744097z"></path>
</svg>
